<?xml version="1.0" encoding="UTF-8"?> <svg xmlns="http://www.w3.org/2000/svg" width="214" height="84" viewBox="0 0 214 84" fill="none"><path d="M64.1492 27.3413V83.6409H83.5989V16.2152C83.5989 7.51514 76.53 0.488159 67.8299 0.488159H0.404297V20.147H56.913C60.8866 20.147 64.1492 23.3677 64.1492 27.3831V27.3413Z" fill="#FF3D43"></path><path d="M32.864 58.4199L7.64209 83.6418H54.2377V79.7937V37.0461L32.864 58.4199Z" fill="#AA0000"></path><path d="M0.446777 30.0592V76.8222L25.836 51.433L47.2097 30.0592H0.446777Z" fill="#AA0000"></path><path d="M109.141 13.4341L103.43 3.49402H100.028V17.8814H103.102V8.3002L108.782 17.8814H112.231V3.49402H109.141V13.4341Z" fill="black"></path><path d="M124.03 15.6513C123.936 15.5577 123.874 15.3392 123.874 15.0271V11.3133C123.874 9.83082 123.468 8.69169 122.641 7.92707C121.83 7.16245 120.597 6.77234 118.99 6.77234C117.382 6.77234 116.431 7.08443 115.557 7.693C114.683 8.30158 114.152 9.20664 113.949 10.3926L117.008 10.533C117.102 10.0181 117.304 9.62796 117.632 9.36269C117.96 9.09741 118.412 8.97258 118.99 8.97258C119.567 8.97258 120.035 9.14422 120.363 9.50313C120.675 9.86203 120.847 10.3926 120.847 11.0948L117.336 11.7814C116.165 12.0311 115.276 12.4056 114.667 12.9205C114.059 13.4355 113.762 14.1845 113.762 15.1364C113.762 16.0882 114.121 16.7904 114.823 17.321C115.526 17.8359 116.446 18.1012 117.57 18.1012C118.693 18.1012 118.912 18.0076 119.458 17.8047C120.004 17.6019 120.457 17.321 120.8 16.9465C121.018 16.728 121.19 16.4783 121.315 16.2131C121.377 16.5252 121.471 16.7904 121.596 17.0089C121.83 17.3678 122.126 17.6175 122.501 17.7735C122.875 17.9296 123.281 17.992 123.702 17.992C124.124 17.992 124.108 17.992 124.326 17.9452C124.529 17.914 124.685 17.8984 124.779 17.8671V15.7761H124.483C124.28 15.7761 124.124 15.7293 124.03 15.6201V15.6513ZM120.847 13.5447C120.847 14.0596 120.737 14.4966 120.519 14.8867C120.3 15.2612 120.004 15.5577 119.629 15.7449C119.255 15.9478 118.818 16.0414 118.319 16.0414C117.819 16.0414 117.507 15.9478 117.258 15.7449C117.008 15.5421 116.899 15.2612 116.899 14.8867C116.899 14.5122 117.024 14.2469 117.273 14.0284C117.523 13.81 117.897 13.6539 118.381 13.5447L120.847 13.0141V13.5447Z" fill="black"></path><path d="M129.569 4.4751H126.527V7.03424H124.779V9.29689H126.527V14.6336C126.527 15.7728 126.792 16.5998 127.322 17.1147C127.853 17.6297 128.68 17.895 129.788 17.895H132.425V15.6323H130.911C130.459 15.6323 130.131 15.5387 129.913 15.3514C129.694 15.1642 129.585 14.8053 129.585 14.2747V9.31249H132.441V7.04984H129.585V4.4907L129.569 4.4751Z" fill="black"></path><path d="M136.746 7.01929H133.703V17.88H136.746V7.01929Z" fill="black"></path><path d="M136.776 3.26123H133.64V5.69553H136.776V3.26123Z" fill="black"></path><path d="M146.514 7.48504C145.687 7.0169 144.72 6.78284 143.612 6.78284C142.504 6.78284 141.537 7.0169 140.709 7.48504C139.882 7.95317 139.243 8.62417 138.79 9.46681C138.338 10.3095 138.104 11.3081 138.104 12.4629C138.104 13.6176 138.338 14.6163 138.79 15.4589C139.243 16.3172 139.898 16.9726 140.709 17.4407C141.537 17.9088 142.504 18.1429 143.612 18.1429C144.72 18.1429 145.687 17.9088 146.514 17.4407C147.341 16.9726 147.981 16.3172 148.434 15.4589C148.886 14.6007 149.12 13.602 149.12 12.4629C149.12 11.3237 148.886 10.3251 148.434 9.46681C147.981 8.62417 147.326 7.96878 146.514 7.48504ZM145.375 14.9128C144.954 15.5058 144.361 15.7866 143.612 15.7866C142.863 15.7866 142.27 15.4901 141.849 14.9128C141.427 14.3198 141.224 13.5084 141.224 12.4473C141.224 11.3862 141.427 10.5747 141.849 9.98176C142.27 9.38879 142.847 9.10791 143.612 9.10791C144.377 9.10791 144.954 9.40439 145.375 9.98176C145.797 10.5747 145.999 11.3862 145.999 12.4473C145.999 13.5084 145.797 14.3198 145.375 14.9128Z" fill="black"></path><path d="M158.53 7.28218C157.984 6.93888 157.313 6.78284 156.533 6.78284C155.752 6.78284 155.394 6.89206 154.894 7.11053C154.395 7.32899 153.973 7.67229 153.646 8.17164C153.521 8.35889 153.412 8.56175 153.318 8.79582L153.256 7.03251H150.525V17.8932H153.568V11.9167C153.568 11.0429 153.739 10.3719 154.067 9.90374C154.41 9.4356 154.894 9.20154 155.534 9.20154C156.174 9.20154 156.299 9.31077 156.548 9.51363C156.798 9.71648 156.954 10.0286 157.048 10.4343C157.141 10.84 157.188 11.3394 157.188 11.9167V17.8932H160.231V10.9024C160.231 10.0598 160.09 9.34197 159.794 8.71779C159.497 8.10922 159.092 7.62548 158.53 7.28218Z" fill="black"></path><path d="M171.792 15.6513C171.698 15.5577 171.636 15.3392 171.636 15.0271V11.3133C171.636 9.83082 171.23 8.69169 170.403 7.92707C169.591 7.16245 168.359 6.77234 166.751 6.77234C165.144 6.77234 164.192 7.08443 163.318 7.693C162.445 8.30158 161.914 9.20664 161.711 10.3926L164.77 10.533C164.863 10.0181 165.066 9.62796 165.394 9.36269C165.722 9.09741 166.174 8.97258 166.751 8.97258C167.329 8.97258 167.797 9.14422 168.125 9.50313C168.437 9.86203 168.608 10.3926 168.608 11.0948L165.097 11.7814C163.927 12.0311 163.038 12.4056 162.429 12.9205C161.82 13.4355 161.524 14.1845 161.524 15.1364C161.524 16.0882 161.883 16.7904 162.585 17.321C163.287 17.8359 164.208 18.1012 165.331 18.1012C166.455 18.1012 166.673 18.0076 167.22 17.8047C167.766 17.6019 168.218 17.321 168.562 16.9465C168.78 16.728 168.952 16.4783 169.076 16.2131C169.139 16.5252 169.233 16.7904 169.357 17.0089C169.591 17.3678 169.888 17.6175 170.262 17.7735C170.637 17.9296 171.043 17.992 171.464 17.992C171.885 17.992 171.87 17.992 172.088 17.9452C172.291 17.914 172.447 17.8984 172.541 17.8671V15.7761H172.244C172.041 15.7761 171.885 15.7293 171.792 15.6201V15.6513ZM168.608 13.5447C168.608 14.0596 168.499 14.4966 168.281 14.8867C168.062 15.2612 167.766 15.5577 167.391 15.7449C167.017 15.9478 166.58 16.0414 166.08 16.0414C165.581 16.0414 165.269 15.9478 165.019 15.7449C164.77 15.5421 164.66 15.2612 164.66 14.8867C164.66 14.5122 164.785 14.2469 165.035 14.0284C165.285 13.81 165.659 13.6539 166.143 13.5447L168.608 13.0141V13.5447Z" fill="black"></path><path d="M177.364 15.6187C177.084 15.6187 176.865 15.5563 176.709 15.4159C176.553 15.2754 176.491 15.057 176.491 14.7293V3.49402H173.448V15.0414C173.448 16.04 173.697 16.7578 174.197 17.2104C174.696 17.6629 175.398 17.8814 176.288 17.8814H178.098V15.6187H177.364Z" fill="black"></path><path d="M103.102 34.079H109.797V31.5355H103.102V28.2273H110.031V25.637H100.028V40.0243H110.202V37.434H103.102V34.079Z" fill="black"></path><path d="M118.785 30.6928C118.504 30.1467 118.083 29.7097 117.521 29.382C116.96 29.07 116.289 28.8983 115.524 28.8983C114.759 28.8983 113.839 29.1324 113.168 29.6005C112.497 30.0686 111.982 30.724 111.623 31.5667C111.264 32.4093 111.077 33.408 111.077 34.5783C111.077 35.7487 111.248 36.7474 111.607 37.59C111.966 38.4327 112.481 39.0881 113.152 39.5562C113.823 40.0243 114.619 40.2584 115.54 40.2584C116.46 40.2584 116.975 40.1023 117.553 39.7746C118.146 39.4469 118.582 38.9944 118.879 38.4171L118.941 40.0243H121.844V25.637H118.801V30.7084L118.785 30.6928ZM118.536 36.4197C118.364 36.919 118.099 37.2935 117.771 37.5432C117.428 37.7929 117.022 37.9333 116.538 37.9333C115.836 37.9333 115.274 37.6368 114.853 37.0283C114.432 36.4197 114.213 35.6082 114.213 34.594C114.213 33.5797 114.416 32.7526 114.837 32.144C115.259 31.5355 115.82 31.239 116.538 31.239C117.256 31.239 117.443 31.3638 117.771 31.6135C118.114 31.8632 118.364 32.2377 118.536 32.7214C118.707 33.2208 118.801 33.8293 118.801 34.5783C118.801 35.3274 118.707 35.9203 118.536 36.4197Z" fill="black"></path><path d="M130.238 35.2978C130.238 36.1561 130.066 36.7802 129.723 37.2172C129.38 37.6385 128.896 37.857 128.272 37.857C127.648 37.857 127.32 37.6697 127.055 37.2796C126.805 36.8895 126.664 36.2809 126.664 35.4383V29.1496H123.622V36.1405C123.622 37.4356 123.934 38.4499 124.558 39.1677C125.182 39.8855 126.056 40.2444 127.179 40.2444C128.303 40.2444 129.021 39.9636 129.629 39.4174C129.973 39.1053 130.238 38.7152 130.441 38.2471L130.488 39.9948H133.265V29.134H130.222V35.2822L130.238 35.2978Z" fill="black"></path><path d="M140.148 31.2716C140.725 31.2716 141.209 31.4432 141.599 31.7865C141.989 32.1298 142.223 32.6448 142.317 33.3158L145.454 33.1753C145.344 32.2859 145.048 31.5212 144.58 30.8815C144.112 30.2417 143.487 29.7579 142.723 29.4146C141.958 29.0713 141.1 28.9153 140.132 28.9153C139.165 28.9153 138.057 29.1494 137.23 29.6175C136.403 30.0856 135.763 30.7566 135.311 31.5993C134.858 32.4419 134.624 33.4406 134.624 34.5953C134.624 35.7501 134.858 36.7487 135.311 37.5914C135.763 38.4496 136.419 39.105 137.23 39.5732C138.057 40.0413 139.024 40.2754 140.132 40.2754C141.24 40.2754 141.989 40.1037 142.754 39.7448C143.519 39.3859 144.127 38.8866 144.595 38.2312C145.063 37.5758 145.344 36.7956 145.438 35.9061L142.301 35.7813C142.223 36.5147 141.989 37.0608 141.599 37.4197C141.209 37.7786 140.725 37.9503 140.132 37.9503C139.539 37.9503 138.79 37.6538 138.369 37.0764C137.948 36.4835 137.745 35.672 137.745 34.6109C137.745 33.5498 137.948 32.7384 138.369 32.161C138.79 31.5837 139.368 31.2872 140.132 31.2872L140.148 31.2716Z" fill="black"></path><path d="M156.438 37.7765C156.345 37.6829 156.282 37.4645 156.282 37.1524V33.4385C156.282 31.9561 155.876 30.8169 155.049 30.0523C154.238 29.2877 153.005 28.8976 151.398 28.8976C149.791 28.8976 148.839 29.2097 147.965 29.8182C147.091 30.4268 146.561 31.3319 146.358 32.5178L149.416 32.6583C149.51 32.1433 149.713 31.7532 150.04 31.4879C150.368 31.2227 150.821 31.0978 151.398 31.0978C151.975 31.0978 152.443 31.2695 152.771 31.6284C153.083 31.9873 153.255 32.5178 153.255 33.22L149.744 33.9066C148.573 34.1563 147.684 34.5308 147.075 35.0458C146.467 35.5607 146.17 36.3097 146.17 37.2616C146.17 38.2135 146.529 38.9157 147.232 39.4462C147.934 39.9612 148.854 40.2265 149.978 40.2265C151.101 40.2265 151.32 40.1328 151.866 39.93C152.412 39.7271 152.865 39.4462 153.208 39.0717C153.427 38.8533 153.598 38.6036 153.723 38.3383C153.785 38.6504 153.879 38.9157 154.004 39.1341C154.238 39.493 154.534 39.7427 154.909 39.8988C155.283 40.0548 155.689 40.1172 156.11 40.1172C156.532 40.1172 156.516 40.1172 156.735 40.0704C156.938 40.0392 157.094 40.0236 157.187 39.9924V37.9014H156.891C156.688 37.9014 156.532 37.8546 156.438 37.7453V37.7765ZM153.239 35.6855C153.239 36.2005 153.13 36.6374 152.912 37.0275C152.693 37.402 152.397 37.6985 152.022 37.8858C151.648 38.0886 151.211 38.1823 150.711 38.1823C150.212 38.1823 149.9 38.0886 149.65 37.8858C149.401 37.6829 149.291 37.402 149.291 37.0275C149.291 36.653 149.416 36.3877 149.666 36.1693C149.915 35.9508 150.29 35.7948 150.774 35.6855L153.239 35.155V35.6855Z" fill="black"></path><path d="M161.978 26.6039H158.935V29.163H157.187V31.4257H158.935V36.7624C158.935 37.9015 159.2 38.7286 159.731 39.2435C160.261 39.7585 161.088 40.0238 162.196 40.0238H164.833V37.7611H163.32C162.867 37.7611 162.539 37.6675 162.321 37.4802C162.102 37.293 161.993 36.9341 161.993 36.4035V31.4413H164.849V29.1786H161.993V26.6195L161.978 26.6039Z" fill="black"></path><path d="M169.158 29.1658H166.115V40.0265H169.158V29.1658Z" fill="black"></path><path d="M169.188 25.3865H166.051V27.8208H169.188V25.3865Z" fill="black"></path><path d="M178.926 29.6315C178.099 29.1634 177.131 28.9293 176.024 28.9293C174.916 28.9293 173.948 29.1634 173.121 29.6315C172.294 30.0997 171.654 30.7706 171.202 31.6133C170.749 32.4559 170.515 33.4546 170.515 34.6094C170.515 35.7641 170.749 36.7628 171.202 37.6054C171.654 38.4637 172.31 39.1191 173.121 39.5872C173.948 40.0553 174.916 40.2894 176.024 40.2894C177.131 40.2894 178.099 40.0553 178.926 39.5872C179.753 39.1191 180.393 38.4637 180.845 37.6054C181.298 36.7472 181.532 35.7485 181.532 34.6094C181.532 33.4702 181.298 32.4715 180.845 31.6133C180.393 30.7706 179.737 30.1153 178.926 29.6315ZM177.787 37.0593C177.366 37.6522 176.773 37.9331 176.024 37.9331C175.274 37.9331 174.682 37.6366 174.26 37.0593C173.839 36.4663 173.636 35.6549 173.636 34.5938C173.636 33.5326 173.839 32.7212 174.26 32.1282C174.682 31.5353 175.259 31.2544 176.024 31.2544C176.788 31.2544 177.366 31.5509 177.787 32.1282C178.208 32.7212 178.411 33.5326 178.411 34.5938C178.411 35.6549 178.208 36.4663 177.787 37.0593Z" fill="black"></path><path d="M192.188 30.8502C191.892 30.2417 191.486 29.7579 190.924 29.4146C190.378 29.0713 189.707 28.9153 188.927 28.9153C188.146 28.9153 187.788 29.0245 187.288 29.243C186.789 29.4614 186.368 29.8047 186.04 30.3041C185.915 30.4913 185.806 30.6942 185.712 30.9283L185.65 29.165H182.919V40.0257H185.962V34.0492C185.962 33.1753 186.133 32.5043 186.461 32.0362C186.804 31.568 187.288 31.334 187.928 31.334C188.568 31.334 188.693 31.4432 188.942 31.6461C189.192 31.8489 189.348 32.161 189.442 32.5667C189.535 32.9725 189.582 33.4718 189.582 34.0492V40.0257H192.625V33.0349C192.625 32.1922 192.485 31.4744 192.188 30.8502Z" fill="black"></path><path d="M110.156 47.5291C109.111 46.9205 107.862 46.6084 106.38 46.6084C104.898 46.6084 103.665 46.9205 102.619 47.5291C101.574 48.1376 100.762 49.0115 100.201 50.1506C99.6388 51.2741 99.3579 52.6161 99.3579 54.161C99.3579 55.7058 99.6388 57.0322 100.201 58.1557C100.762 59.2793 101.558 60.1375 102.619 60.7461C103.665 61.3547 104.913 61.6511 106.38 61.6511C107.847 61.6511 109.095 61.3547 110.141 60.7461C111.186 60.1375 111.998 59.2793 112.559 58.1557C113.121 57.0322 113.402 55.7058 113.402 54.161C113.402 52.6161 113.121 51.2897 112.559 50.1506C111.998 49.0271 111.202 48.1532 110.156 47.5291ZM109.766 56.8137C109.47 57.5472 109.017 58.0933 108.455 58.4834C107.878 58.8735 107.191 59.0608 106.38 59.0608C105.569 59.0608 104.913 58.8735 104.336 58.4834C103.758 58.0933 103.321 57.5472 103.025 56.8137C102.728 56.0803 102.572 55.2065 102.572 54.161C102.572 53.1155 102.728 52.226 103.025 51.4926C103.321 50.7592 103.758 50.1974 104.336 49.8073C104.898 49.4172 105.584 49.2143 106.38 49.2143C107.176 49.2143 107.878 49.4172 108.455 49.8073C109.033 50.1974 109.47 50.7592 109.766 51.4926C110.063 52.226 110.219 53.1155 110.219 54.161C110.219 55.2065 110.063 56.0803 109.766 56.8137Z" fill="black"></path><path d="M123.793 50.9779C123.122 50.4786 122.279 50.2289 121.265 50.2289C120.251 50.2289 119.751 50.4317 119.143 50.8531C118.674 51.1652 118.316 51.5865 118.05 52.117L118.003 50.4629H115.085V64.3666H118.128V59.8257C118.253 60.0597 118.409 60.2626 118.581 60.4498C118.909 60.8087 119.314 61.074 119.767 61.2769C120.219 61.4797 120.719 61.5734 121.249 61.5734C122.264 61.5734 123.106 61.3237 123.793 60.8243C124.479 60.325 124.994 59.6384 125.338 58.7802C125.681 57.9219 125.853 56.9544 125.853 55.9089C125.853 54.8634 125.681 53.8803 125.338 53.0221C124.994 52.1638 124.479 51.4929 123.808 50.9779H123.793ZM122.107 58.3432C121.702 58.9362 121.124 59.2327 120.422 59.2327C119.72 59.2327 119.548 59.1079 119.189 58.8582C118.846 58.6085 118.581 58.234 118.394 57.7347C118.206 57.2353 118.113 56.6267 118.113 55.8933C118.113 55.1599 118.206 54.5513 118.394 54.052C118.581 53.5526 118.846 53.1781 119.189 52.9285C119.533 52.6788 119.938 52.554 120.422 52.554C121.14 52.554 121.702 52.8504 122.107 53.4434C122.513 54.0364 122.732 54.8478 122.732 55.8933C122.732 56.9388 122.529 57.7503 122.107 58.3432Z" fill="black"></path><path d="M135.935 50.9779C135.264 50.4786 134.422 50.2289 133.407 50.2289C132.393 50.2289 131.894 50.4317 131.285 50.8531C130.817 51.1652 130.458 51.5865 130.193 52.117L130.146 50.4629H127.228V64.3666H130.271V59.8257C130.396 60.0597 130.552 60.2626 130.723 60.4498C131.051 60.8087 131.457 61.074 131.909 61.2769C132.362 61.4797 132.861 61.5734 133.392 61.5734C134.406 61.5734 135.249 61.3237 135.935 60.8243C136.622 60.325 137.137 59.6384 137.48 58.7802C137.823 57.9219 137.995 56.9544 137.995 55.9089C137.995 54.8634 137.823 53.8803 137.48 53.0221C137.137 52.1638 136.622 51.4929 135.951 50.9779H135.935ZM134.25 58.3432C133.844 58.9362 133.267 59.2327 132.565 59.2327C131.863 59.2327 131.691 59.1079 131.332 58.8582C130.989 58.6085 130.723 58.234 130.536 57.7347C130.349 57.2353 130.255 56.6267 130.255 55.8933C130.255 55.1599 130.349 54.5513 130.536 54.052C130.723 53.5526 130.989 53.1781 131.332 52.9285C131.675 52.6788 132.081 52.554 132.565 52.554C133.283 52.554 133.844 52.8504 134.25 53.4434C134.656 54.0364 134.874 54.8478 134.874 55.8933C134.874 56.9388 134.671 57.7503 134.25 58.3432Z" fill="black"></path><path d="M147.185 50.9311C146.358 50.4629 145.39 50.2289 144.282 50.2289C143.174 50.2289 142.207 50.4629 141.38 50.9311C140.553 51.3992 139.913 52.0702 139.461 52.9129C139.008 53.7555 138.774 54.7542 138.774 55.9089C138.774 57.0637 139.008 58.0623 139.461 58.905C139.913 59.7632 140.568 60.4186 141.38 60.8868C142.207 61.3549 143.174 61.589 144.282 61.589C145.39 61.589 146.358 61.3549 147.185 60.8868C148.012 60.4186 148.652 59.7632 149.104 58.905C149.557 58.0467 149.791 57.0481 149.791 55.9089C149.791 54.7698 149.557 53.7711 149.104 52.9129C148.652 52.0702 147.996 51.4148 147.185 50.9311ZM146.046 58.3588C145.624 58.9518 145.031 59.2327 144.282 59.2327C143.533 59.2327 142.94 58.9362 142.519 58.3588C142.098 57.7659 141.895 56.9544 141.895 55.8933C141.895 54.8322 142.098 54.0208 142.519 53.4278C142.94 52.8348 143.518 52.554 144.282 52.554C145.047 52.554 145.624 52.8504 146.046 53.4278C146.467 54.0208 146.67 54.8322 146.67 55.8933C146.67 56.9544 146.467 57.7659 146.046 58.3588Z" fill="black"></path><path d="M154.864 51.1973C154.552 51.5406 154.302 52.0399 154.13 52.6797L154.052 50.4795H151.181V61.3402H154.224V55.2389C154.224 54.6927 154.318 54.2402 154.505 53.9281C154.692 53.616 154.957 53.3663 155.332 53.2259C155.691 53.0698 156.159 53.0074 156.736 53.0074H157.735V50.4951H156.736C155.956 50.4951 155.332 50.7448 154.895 51.2285L154.864 51.1973Z" fill="black"></path><path d="M162.916 47.9034H159.873V50.4626H158.125V52.7252H159.873V58.062C159.873 59.2011 160.138 60.0281 160.669 60.5431C161.2 61.058 162.027 61.3233 163.135 61.3233H165.772V59.0607H164.258C163.806 59.0607 163.478 58.967 163.259 58.7798C163.041 58.5925 162.932 58.2336 162.932 57.7031V52.7408H165.787V50.4782H162.932V47.919L162.916 47.9034Z" fill="black"></path><path d="M173.73 56.6115C173.73 57.4698 173.558 58.094 173.215 58.5309C172.871 58.9678 172.388 59.1707 171.763 59.1707C171.139 59.1707 170.812 58.9834 170.546 58.5933C170.297 58.2032 170.156 57.5946 170.156 56.752V50.4634H167.113V57.4542C167.113 58.7494 167.425 59.7636 168.05 60.4815C168.674 61.1993 169.548 61.5582 170.671 61.5582C171.795 61.5582 172.512 61.2773 173.121 60.7311C173.464 60.419 173.73 60.0289 173.932 59.5608L173.979 61.3085H176.757V50.4478H173.714V56.5959L173.73 56.6115Z" fill="black"></path><path d="M186.929 50.7282C186.383 50.3849 185.712 50.2289 184.932 50.2289C184.152 50.2289 183.793 50.3381 183.294 50.5566C182.794 50.775 182.373 51.1183 182.045 51.6177C181.92 51.8049 181.811 52.0078 181.718 52.2419L181.655 50.4786H178.924V61.3393H181.967V55.3628C181.967 54.4889 182.139 53.8179 182.467 53.3498C182.81 52.8816 183.294 52.6476 183.933 52.6476C184.573 52.6476 184.698 52.7568 184.948 52.9597C185.197 53.1625 185.353 53.4746 185.447 53.8803C185.541 54.2861 185.587 54.7854 185.587 55.3628V61.3393H188.63V54.3485C188.63 53.5058 188.49 52.788 188.193 52.1638C187.897 51.5553 187.491 51.0715 186.929 50.7282Z" fill="black"></path><path d="M193.654 50.4618H190.611V61.3225H193.654V50.4618Z" fill="black"></path><path d="M193.684 46.686H190.548V49.1203H193.684V46.686Z" fill="black"></path><path d="M199.492 47.9034H196.449V50.4626H194.701V52.7252H196.449V58.062C196.449 59.2011 196.714 60.0281 197.245 60.5431C197.775 61.058 198.602 61.3233 199.71 61.3233H202.347V59.0607H200.834C200.381 59.0607 200.054 58.967 199.835 58.7798C199.617 58.5925 199.507 58.2336 199.507 57.7031V52.7408H202.363V50.4782H199.507V47.919L199.492 47.9034Z" fill="black"></path><path d="M210.494 50.4634L208.169 57.9379L205.672 50.4634H202.567L206.374 60.7779H207.201L206.983 61.4021C206.889 61.6518 206.749 61.839 206.593 61.9327C206.421 62.0263 206.172 62.0887 205.813 62.0887H204.377V64.3514H206.437C207.264 64.3514 207.904 64.1953 208.356 63.8832C208.809 63.5711 209.168 63.0562 209.417 62.3384L213.599 50.4478H210.494V50.4634Z" fill="black"></path><path d="M109.141 79.0041L103.43 69.0796H100.028V83.4669H103.102V73.8858L108.782 83.4669H112.231V69.0796H109.141V79.0041Z" fill="black"></path><path d="M122.033 73.074C121.237 72.6059 120.3 72.3718 119.208 72.3718C118.116 72.3718 117.148 72.6059 116.337 73.074C115.526 73.5422 114.901 74.2132 114.449 75.0558C113.996 75.8984 113.762 76.8971 113.762 78.0519C113.762 79.2066 113.981 80.2053 114.449 81.0479C114.901 81.9062 115.541 82.5616 116.353 83.0297C117.164 83.4978 118.131 83.7319 119.239 83.7319C120.347 83.7319 121.658 83.4354 122.579 82.8268C123.499 82.2183 124.092 81.3756 124.389 80.2989L121.33 80.1117C121.174 80.5642 120.94 80.8919 120.597 81.1103C120.254 81.3288 119.817 81.438 119.317 81.438C118.818 81.438 118.053 81.2352 117.632 80.8139C117.211 80.3925 116.977 79.7528 116.93 78.8945H124.576V78.2859C124.576 77.0688 124.358 76.0233 123.921 75.1494C123.484 74.2756 122.86 73.589 122.064 73.1208L122.033 73.074ZM116.914 76.9752C116.992 76.2261 117.242 75.6332 117.648 75.2274C118.053 74.8217 118.584 74.6033 119.224 74.6033C119.864 74.6033 120.379 74.8061 120.769 75.1962C121.174 75.5864 121.393 76.1793 121.424 76.9752H116.899H116.914Z" fill="black"></path><path d="M129.866 70.0464H126.823V72.6055H125.075V74.8682H126.823V80.2049C126.823 81.3441 127.088 82.1711 127.619 82.686C128.149 83.201 128.976 83.4663 130.084 83.4663H132.721V81.2036H131.208C130.755 81.2036 130.428 81.11 130.209 80.9227C129.991 80.7355 129.881 80.3766 129.881 79.846V74.8838H132.737V72.6211H129.881V70.062L129.866 70.0464Z" fill="black"></path><path d="M144.344 79.9545L142.347 72.6047H139.866L137.869 79.9545L135.996 72.6047H132.938L136.152 83.4655H139.101L141.099 76.6775L143.112 83.4655H146.076L149.291 72.6047H146.233L144.344 79.9545Z" fill="black"></path><path d="M157.814 73.074C156.987 72.6059 156.019 72.3718 154.911 72.3718C153.803 72.3718 152.836 72.6059 152.009 73.074C151.182 73.5422 150.542 74.2132 150.089 75.0558C149.637 75.8984 149.403 76.8971 149.403 78.0519C149.403 79.2066 149.637 80.2053 150.089 81.0479C150.542 81.9062 151.197 82.5616 152.009 83.0297C152.836 83.4978 153.803 83.7319 154.911 83.7319C156.019 83.7319 156.987 83.4978 157.814 83.0297C158.641 82.5616 159.28 81.9062 159.733 81.0479C160.186 80.1897 160.42 79.191 160.42 78.0519C160.42 76.9127 160.186 75.9141 159.733 75.0558C159.28 74.2132 158.625 73.5578 157.814 73.074ZM156.675 80.5018C156.253 81.0947 155.66 81.3756 154.911 81.3756C154.162 81.3756 153.569 81.0791 153.148 80.5018C152.727 79.9088 152.524 79.0974 152.524 78.0363C152.524 76.9752 152.727 76.1637 153.148 75.5707C153.569 74.9778 154.147 74.6969 154.911 74.6969C155.676 74.6969 156.253 74.9934 156.675 75.5707C157.096 76.1637 157.299 76.9752 157.299 78.0363C157.299 79.0974 157.096 79.9088 156.675 80.5018Z" fill="black"></path><path d="M165.489 73.3402C165.177 73.6835 164.927 74.1829 164.755 74.8227L164.677 72.6224H161.806V83.4832H164.849V77.3818C164.849 76.8357 164.943 76.3831 165.13 76.071C165.317 75.7589 165.582 75.5093 165.957 75.3688C166.316 75.2128 166.784 75.1504 167.361 75.1504H168.36V72.638H167.361C166.581 72.638 165.957 72.8877 165.52 73.3715L165.489 73.3402Z" fill="black"></path><path d="M175.928 77.0847L180.142 72.6062H176.49L172.464 77.0691V69.0796H169.421V83.4669H172.464V80.4085L173.962 78.8012L176.943 83.4669H180.267L175.928 77.0847Z" fill="black"></path></svg> 